<?xml version="1.0" encoding="UTF-8"?>
<svg id="svg3460" xmlns="http://www.w3.org/2000/svg" viewBox="0 0 290.34 179.1">
  <defs>
    <style>
      .cls-1 {
        fill: #373738;
      }

      .cls-2 {
        fill: #6cb33f;
      }
    </style>
  </defs>
  <g id="g3545">
    <g>
      <path id="path26" class="cls-1" d="M0,114.5h8.24v49.38H0v-49.38Z"/>
      <g id="g36">
        <path id="path38" class="cls-1" d="M16.61,125.12h7.85v3.09c1.98-1.51,5.63-3.73,10.7-3.73,9.44,0,12.68,5.88,12.68,13.72v25.68h-8.01v-24.41c0-5.4-1.59-8.56-7.38-8.56-3.17,0-6.02,1.42-7.84,2.69v30.28h-8.01v-38.76Z"/>
      </g>
      <g id="g40">
        <path id="path42" class="cls-1" d="M76.82,137.72c0-4.04-2.38-7.77-7.53-7.77s-7.53,3.73-7.53,7.77,2.38,7.6,7.53,7.6,7.53-3.56,7.53-7.6M78.96,167.45c0-3.49-2.3-4.76-8.64-4.99-2.69-.08-4.99-.25-5.94-.32-2.14,1.03-4.75,2.7-4.75,5.95,0,3.72,3.88,5.3,9.19,5.3,7.06,0,10.15-2.22,10.15-5.94M52.17,169.04c0-4.36,3.81-7.13,7.13-8.57-1.9-1.03-3.33-2.78-3.33-5.71,0-3.08,2.37-5.22,4.28-6.18-3.96-2.3-6.26-6.1-6.26-10.86,0-7.62,5.86-13.24,15.22-13.24,2.3,0,4.12.32,5.94.64h12.76v5.71h-6.18c1.82,1.98,2.78,4.35,2.78,7.13,0,7.22-5.63,12.77-15.3,12.77-1.51,0-3.02-.15-4.36-.48-.95.55-1.98,1.59-1.98,2.93,0,1.59.95,2.47,3.64,2.63l7.45.39c7.21.32,12.92,2.94,12.92,10.54,0,8.09-7.29,12.37-18.39,12.37-9.91,0-16.33-3.64-16.33-10.07"/>
      </g>
      <g id="g44">
        <path id="path46" class="cls-1" d="M93.09,125.12h7.93v4.05c2.38-2.77,5.55-4.68,9.75-4.68,1.11,0,2.38.25,3.25.47v7.22c-.95-.23-2.3-.55-4.04-.55-4.36,0-6.82,1.51-8.88,3.25v29.01h-8.01v-38.76Z"/>
      </g>
      <g id="g48">
        <path id="path50" class="cls-1" d="M177.21,155.56v-23.46c-1.35-.55-3.49-1.35-6.11-1.35-7.21,0-10.7,5.39-10.7,13.72,0,7.53,2.38,13.56,9.76,13.56,2.77,0,5.39-.96,7.05-2.46M151.92,144.77c0-11.25,6.82-20.29,17.92-20.29,3.72,0,6.26.96,7.37,1.51v-16.01h7.93v53.9h-7.93v-3.09c-1.59,1.82-4.91,3.72-9.36,3.72-10.62,0-15.93-7.76-15.93-19.74"/>
      </g>
      <path id="path52" class="cls-1" d="M193.25,125.06h8.01v38.76h-8.01v-38.76ZM192.22,113.49c0-2.7,2.14-4.99,5.07-4.99s5.08,2.3,5.08,4.99-2.23,5-5.08,5-5.07-2.3-5.07-5"/>
      <g id="g54">
        <path id="path56" class="cls-1" d="M234.53,144.48c0-7.14-1.98-13.88-9.51-13.88s-9.36,6.74-9.36,13.88,1.91,13.79,9.44,13.79,9.43-6.74,9.43-13.79M207.34,144.48c0-10.39,5.55-20.06,17.76-20.06s17.68,8.81,17.68,20.06c0,10.38-5.63,19.97-17.76,19.97s-17.68-8.71-17.68-19.97"/>
      </g>
      <g id="g58">
        <path id="path60" class="cls-1" d="M248.23,125.06h7.85v3.09c1.98-1.51,5.63-3.73,10.7-3.73,9.43,0,12.68,5.88,12.68,13.72v25.68h-8.01v-24.41c0-5.4-1.59-8.56-7.37-8.56-3.17,0-6.02,1.42-7.85,2.69v30.28h-8.01v-38.76Z"/>
      </g>
      <g id="g62">
        <path id="path64" class="cls-1" d="M139.93,139.87v-.4c0-4.44-2.46-8.81-7.46-8.81-4.68,0-8.4,2.62-9.2,9.21h16.65ZM114.8,144.54c0-11.33,6.42-20.06,17.76-20.06s15.38,8.65,15.38,17.36c0,1.11-.08,2.07-.16,3.25h-24.81c.08,7.85,3.17,13.16,11.42,13.16,4.67,0,8.4-1.03,11.18-2.38v6.42c-2.7,1.11-7.06,2.21-11.58,2.21-13.24,0-19.18-8.08-19.18-19.97"/>
      </g>
    </g>
    <g id="g66">
      <path id="path68" class="cls-2" d="M109.26,91.85c15.67-6.01,26.38-18.57,29.89-33.83-15.44,4.58-27.21,17.66-29.89,33.83M47.76,33.46c-11.09,38.03,24.3,69.91,59.17,59.17,1.25-24.97-19.36-59.17-59.17-59.17M63.35,10.49c-4.26,3.44-7.92,7.6-10.79,12.3,29.66,3.37,54.25,30.98,56.08,57.17,1.65-29.85-17.18-58.83-45.3-69.46M111.03,74.11c7.19-28.35-3.72-58.99-12.76-73.77-6.85-1.06-15.85.62-20.68,2.28,20.05,14.69,36,44.9,33.44,71.49M112.13,4.08c17.75,7.79,29.66,26.6,28.03,47.51-11.32,2.04-21.01,10.12-26.47,19.8,10.46-30.49,3.07-57.38-1.56-67.31"/>
    </g>
  </g>
  <g>
    <path class="cls-1" d="M286.49,163.82c-2.12,0-3.85-1.73-3.85-3.85s1.73-3.85,3.85-3.85,3.85,1.73,3.85,3.85-1.73,3.85-3.85,3.85ZM286.49,156.61c-1.85,0-3.35,1.5-3.35,3.35s1.5,3.35,3.35,3.35,3.35-1.5,3.35-3.35-1.5-3.35-3.35-3.35Z"/>
    <path class="cls-1" d="M285.18,162.04s-.04,0-.04-.04v-4.3s0-.05.04-.05c.37-.01.71-.02,1.16-.02.98,0,1.63.42,1.63,1.27,0,.63-.43,1.01-.92,1.18.23.31,1.12,1.62,1.29,1.91.01.03.01.05-.02.05h-.56s-.05,0-.07-.03c-.21-.31-.76-1.16-1.09-1.68-.05-.08-.09-.11-.15-.11h-.76v1.77s-.01.04-.04.04h-.47ZM286.4,159.74c.63,0,1.02-.33,1.02-.82s-.39-.81-1.1-.81c-.25,0-.5,0-.63.01v1.61h.71Z"/>
  </g>
</svg>