<svg viewBox="0 0 1024 1024" xmlns="http://www.w3.org/2000/svg"><path d="M510 130H407.5q-24.5 0-54.5 2-31 1-53 6t-40 12q-19 7-35.5 17.5T192 194q-16 16-26.5 32.5T148 261q-7 19-11.5 41t-6.5 52q-1 31-1.5 55.5T128 512q0 78 .5 102.5T130 670q2 30 6.5 52t11.5 40q7 19 17.5 35.5T192 830q16 16 32.5 26.5T260 874q18 7 40 12t53 6q30 1 54.5 1.5t102.5.5q78 0 102.5-.5T668 892q31-1 53-6t40-12q19-7 35.5-17.5T829 830q15-16 25.5-32.5T873 762q7-18 11.5-40t5.5-52q2-31 2.5-55.5T893 512q0-78-.5-102.5T890 354q-1-30-5.5-52T873 261q-8-18-18.5-34.5T829 194q-16-16-32.5-26.5T761 150q-18-7-40-12t-53-6q-31-2-55.5-2H510zm0 68q77 0 101 .5t54 2.5q28 1 44.5 5t26.5 8q13 5 23.5 11.5T780 242q10 10 16.5 20.5T808 286q4 10 8 26.5t6 44.5q1 31 1.5 54.5T824 512q0 76-.5 100t-1.5 54q-2 28-6 44.5t-8 26.5q-5 14-11.5 24T780 781q-10 10-20.5 17T736 810q-10 4-26.5 8t-44.5 5q-30 1-54 1.5t-101 .5q-76 0-100-.5t-54-1.5q-28-1-44.5-5t-26.5-8q-14-5-24-12t-20-17q-10-10-17-20t-12-24q-4-10-8-26.5t-5-44.5q-1-30-1.5-54t-.5-100q0-77 .5-100.5T199 357q1-28 5-44.5t8-26.5q5-13 12-23.5t17-20.5q10-10 20-16.5t24-11.5q10-4 26.5-8t44.5-5q30-2 54-2.5t100-.5zm0 441q-52 0-89.5-37T383 512q0-53 37.5-90.5T510 384q53 0 90.5 37.5T638 512q0 53-37.5 90T510 639zm0-323q-40 0-76 15t-62.5 42Q345 400 329 435q-15 36-15 77t15 76q16 36 42.5 62.5T434 693q36 15 76 15 41 0 77-15 36-16 62.5-42.5T691 588q16-35 16-76t-16-77q-15-35-41.5-62T587 331q-36-15-77-15zm250-8q0 19-13.5 32.5T714 354q-19 0-32-13.5T669 308q0-19 13-32.5t32-13.5q19 0 32.5 13.5T760 308z" fill="white"/></svg>