<svg viewBox="0 0 1024 1024" xmlns="http://www.w3.org/2000/svg"><path d="M609 341q-18 0-35 3.5t-33 9.5q-5 2-7.5 5t-2.5 7v333q0 5 3.5 8.5t8.5 4.5h291q43 0 74-31t31-74q0-44-31-74.5T834 502q-11 0-21.5 2t-19.5 6q-6-71-59-120t-125-49zm-111 36l-4 237 4 86q0 4 3.5 7.5t8.5 3.5q5 0 8-3.5t3-7.5l6-86-6-237q0-4-3-7.5t-8-3.5q-5 0-8.5 3.5T498 377zm-35 20l-4 217 2 43.5 2 43.5q0 4 3.5 7.5t7.5 3.5q4 0 7.5-3.5t3.5-7.5l4-87-4-217q0-4-3.5-7.5T474 386q-4 0-7.5 3.5T463 397zm-105 23l-5 194 5 89q0 3 2.5 5.5t6.5 2.5q3 0 5.5-2.5t3.5-5.5l6-89-6-194q-1-4-3.5-6.5T367 411q-4 0-6.5 2.5T358 420zm35 5l-5 189 5 88q0 4 3 6.5t6 2.5q4 0 7-2.5t3-6.5l5-88-5-189q0-4-3-7t-7-3q-3 0-6 3t-3 7zm-69 1l-1 29q-1 30-2 65t-2 64l-1 30 6 89q0 4 2.5 6t5.5 2q3 0 5.5-2t2.5-6l6-89-6-188q0-3-2.5-5.5T332 418q-3 0-5.5 2.5T324 426zm104 6l-5 182 5 87q0 5 3 7.5t7 2.5q4 0 7-2.5t3-7.5l5-87-5-182q0-5-3-7.5t-7-2.5q-4 0-7 2.5t-3 7.5zm-138 9l-1 27q-1 27-2.5 59.5T284 587l-1 27 7 90q0 3 2 5t5 2q3 0 5-2t2-5l7-90-7-173q0-3-2-5.5t-5-2.5q-3 0-5 2.5t-2 5.5zm-34 32l-7 141 7 91q0 3 2 4.5t4 1.5q3 0 5-1.5t2-4.5l7-91-7-141q0-3-2-5t-5-2q-2 0-4 2t-2 5zm-67 47l-8 94 8 90q0 2 1.5 3.5t3.5 1.5q2 0 3.5-1.5t1.5-3.5l8-90-8-94q0-2-1.5-3.5T194 515q-2 0-3.5 1.5T189 520zm-33 3l-4 45.5-4 45.5 8 87q0 2 1 3t3 1q2 0 3-1t1-3l9-87-9-91q0-2-1-3t-3-1q-2 0-3 1t-1 3zm66 4l-7 87 7 91q0 2 2 3.5t4 1.5q2 0 3.5-1.5t2.5-3.5l8-91-8-87q-1-2-2.5-4t-3.5-2q-2 0-4 2t-2 4zm-99 10l-4 38.5-4 38.5 8 75q0 1 1 2t3 1q1 0 2-1t1-2l10-75-10-77q0-1-1-2t-2-1q-2 0-3 1t-1 2zm-31 29l-7 48 7 46q0 2 1 3t2 1q1 0 2-1t1-3l8-46-8-48q0-1-1-2t-2-1q-1 0-2 1t-1 2z" fill="white"/></svg>