<svg viewBox="0 0 1024 1024" xmlns="http://www.w3.org/2000/svg"><path d="M496 343q-15 0-25.5 10.5T461 378q0 15 10.5 24.5T496 412q15 0 25-10t10-25q0-14-10.5-24T496 343zm-187 36q1-14-9.5-25T275 343q-15-1-25.5 9T238 376q0 15 10 25.5t25 10.5q14 0 25-9.5t11-23.5zm357 31q-58 3-108 22t-92 59q-41 40-59.5 90T393 692q-23-3-44-5.5t-42-4.5q-7-1-15 0t-14 5q-20 11-40.5 24T194 738q4-19 7.5-36t8.5-33q4-12 1.5-19.5T198 634q-70-49-97.5-119T95 369q20-71 68.5-114.5T280 188q46-15 94-15t93 13q45 13 84 39t67 63q21 26 33 56.5t15 65.5zm75 155q-11 0-19.5 8.5T713 593q-1 12 7.5 21t20.5 9q12 0 20-8t9-19q0-13-8-21.5t-21-9.5zm-180 58q12 0 20.5-8t8.5-19q1-13-8-22t-21-9q-12 0-20.5 9t-8.5 21q0 12 8.5 20t20.5 8zm280 271q-19-8-36-18t-35-12q-18-2-37 5t-37 9q-58 6-108.5-10T495 813q-40-37-58-83-17-45-12.5-90t30.5-87q25-42 72-72 41-27 90-37 49-9 97-2t90 30q43 23 72 61 51 65 45 143t-68 133q-18 16-23 31t6 36q2 4 3 8.5t2 9.5z" fill="white"/></svg>