<svg viewBox="0 0 1024 1024" xmlns="http://www.w3.org/2000/svg"><path d="M336 554q-18 0-31-15.5T292 502q0-21 13-36t31-15q18 0 31 15t13 36q0 21-13 36.5T336 554zm0-150q-41 0-70 28.5T237 501q0 39 26.5 67.5T336 597q49 0 73.5-28.5T434 501q0-40-29-68.5T336 404zm-98-17q-20-7-29 .5T195 406l-47 111-45-112q-5-11-15-17t-28-1q-18 7-17 21.5t2 17.5l70 162-27 60q-3 6-3.5 19.5T102 688q19 7 28.5-.5T146 667l108-241 3-15.5q3-15.5-19-23.5zm351 22q-13 1-19.5 8.5T563 439l-1 89q0 14-9.5 23T527 561q-23 0-29-12t-6-18v-90q-1-13-7-20t-18-7q-14 0-20.5 7.5T439 443v89q0 9 10.5 39t77.5 29q38-1 62.5-20t26.5-54v-89q-1-14-7.5-20.5T589 409zm267 120v-90q0-13-6.5-20.5T831 411q-14 0-20.5 7.5T803 439v90q1 33 23.5 50.5T892 598q43-1 65-18.5t24-50.5v-90q-1-13-8-20.5t-19-7.5q-13 0-19.5 7.5T927 439v90q-1 14-11 22.5t-24 8.5q-16 0-25.5-8.5T856 529zm-64 18l-53-45 47-41 9.5-14q9.5-14-6.5-28-11-11-23.5-8t-17.5 8l-69 65-1-47q0-12-7-19t-21-7q-14 0-20.5 6.5T622 437v136q1 12 8 18t20 6q14 0 21-6t7-18v-50l37.5 31q37.5 31 40.5 34 9 7 21 6.5t19-7.5q8-7 6.5-19.5T792 547z" fill="white"/></svg>