<?xml version="1.0" encoding="UTF-8"?>
<svg width="14" height="16" viewBox="0 0 14 16" xmlns="http://www.w3.org/2000/svg">
  <path fill="white" d="M6.75 0C10.478 0 13.5 2.985 13.5 6.667c0 2.248-1.217 4.45-3.223 6.541-.688.717-1.423 1.37-2.158 1.949-.258.203-.498.382-.714.536-.131.094-.227.16-.281.195-.227.15-.522.15-.75 0-.054-.036-.15-.101-.281-.195-.216-.154-.456-.333-.714-.536-.735-.579-1.47-1.232-2.158-1.949C1.217 11.117 0 8.914 0 6.667 0 2.985 3.022 0 6.75 0zM6.75 4a2.75 2.75 0 100 5.5 2.75 2.75 0 000-5.5z"/>
</svg> 